<svg width="16" height="16" viewBox="0 0 16 16" fill="none" xmlns="http://www.w3.org/2000/svg">
<g clip-path="url(#clip0_114_45944)">
<rect width="16" height="16" fill="#FF5A5F"/>
<path d="M8.00008 10.6296C7.35456 9.82844 6.97483 9.12621 6.84826 8.52537C6.72169 8.03718 6.77232 7.64914 6.98749 7.36124C7.21532 7.02327 7.55707 6.86054 8.00008 6.86054C8.44309 6.86054 8.78484 7.02327 9.01267 7.36124C9.22785 7.64914 9.27848 8.03718 9.1519 8.52537C9.01267 9.13872 8.63295 9.8397 8.00008 10.6296ZM11.534 12.4821C10.4581 12.9453 9.39366 12.2068 8.48233 11.2054C9.98982 9.339 10.2683 7.88697 9.62149 6.94691C9.24177 6.40866 8.6975 6.14579 8.00008 6.14579C6.59511 6.14579 5.82175 7.32243 6.12552 8.68809C6.30273 9.42662 6.77105 10.2665 7.51784 11.2054C6.9577 11.8192 6.22282 12.5155 5.34077 12.5948C4.06237 12.7826 3.06117 11.5558 3.51684 10.2903L6.75839 3.65356C7.03506 3.15463 7.37652 2.72727 7.99882 2.72727C8.45448 2.72727 8.80889 2.99013 8.96078 3.20293L12.4808 10.2903C12.8257 11.1467 12.3883 12.1173 11.534 12.4821ZM13.1668 10.04L10.1531 3.84132C9.58352 2.68971 9.17848 2 8.00008 2C6.8356 2 6.3407 2.80112 5.8344 3.84132L2.83334 10.04C2.18781 11.7937 3.51684 13.3333 5.12559 13.3333C5.22686 13.3333 5.32738 13.3208 5.42937 13.3208C6.26476 13.2207 7.12672 12.6949 8.00008 11.7549C8.87344 12.6937 9.73541 13.2207 10.5708 13.3208C10.6728 13.3208 10.7733 13.3333 10.8746 13.3333C12.4833 13.3346 13.8124 11.7937 13.1668 10.04Z" fill="white"/>
</g>
<defs>
<clipPath id="clip0_114_45944">
<rect width="16" height="16" rx="2" fill="white"/>
</clipPath>
</defs>
</svg>
