<svg width="16" height="16" viewBox="0 0 16 16" fill="none" xmlns="http://www.w3.org/2000/svg">
<path fill-rule="evenodd" clip-rule="evenodd" d="M6.46451 1.48033C7.10772 0.166723 9.04421 0.212183 9.6022 1.61021L9.60318 1.61119L10.7868 4.58482L14.3854 4.81919L14.5192 4.83287C15.8828 5.02494 16.5505 6.75178 15.4762 7.77134C15.2561 7.97995 15.0208 8.19137 14.7702 8.4022C13.9819 9.06564 13.2135 9.57874 12.5309 9.97642L13.3854 13.328C13.768 14.8278 12.1663 15.9763 10.8629 15.2469C10.41 14.9933 9.94305 14.7062 9.46744 14.3797C8.92463 14.0078 8.43883 13.6284 8.00455 13.2596C7.69046 13.5261 7.35042 13.7983 6.98111 14.0682L6.54165 14.3797C6.06565 14.7065 5.59821 14.9938 5.14712 15.2469C3.8438 15.9764 2.24111 14.8278 2.62369 13.328L3.47622 9.97642C2.79402 9.57885 2.02666 9.06517 1.23892 8.4022C0.98824 8.19137 0.75301 7.98093 0.532866 7.77232C-0.576052 6.71994 0.171002 4.91304 1.62369 4.81919L5.22134 4.58482L6.40591 1.61119L6.46451 1.48033ZM8.20962 2.16587C8.13517 1.97974 7.87334 1.9825 7.80044 2.16587L6.44009 5.58091C6.33302 5.84983 6.08049 6.03285 5.79165 6.05162L1.72037 6.31626C1.62543 6.32241 1.55415 6.37699 1.52017 6.46666C1.50329 6.51125 1.50194 6.55394 1.50845 6.58677C1.51419 6.61521 1.52766 6.6479 1.56509 6.68345L1.87466 6.96763C1.98132 7.06299 2.0911 7.15917 2.20474 7.25474C3.10488 8.01231 3.97538 8.55626 4.69986 8.94322C5.00407 9.106 5.15814 9.45551 5.0729 9.7899L4.07681 13.6981C4.06177 13.7572 4.06854 13.7993 4.07974 13.829C4.09239 13.8624 4.11709 13.897 4.15396 13.9247C4.2256 13.9783 4.31666 13.9918 4.41275 13.9383C4.8275 13.7056 5.25623 13.4425 5.69205 13.1434L6.09537 12.8573C6.48718 12.5709 6.84429 12.2841 7.16763 12.0038C7.62215 11.6097 8.26994 11.5849 8.74869 11.9295L8.84244 12.0038L9.1774 12.287C9.40791 12.4765 9.65316 12.6678 9.91372 12.8583L10.3161 13.1424C10.7525 13.442 11.1803 13.706 11.5954 13.9383C11.6917 13.9922 11.7833 13.9785 11.8551 13.9247C11.892 13.897 11.9167 13.8624 11.9293 13.829C11.9406 13.7993 11.9473 13.7582 11.9323 13.6991L10.9362 9.7899C10.8509 9.4555 11.005 9.10599 11.3092 8.94322C12.0337 8.55626 12.9042 8.01231 13.8043 7.25474C14.0314 7.06379 14.2443 6.87264 14.444 6.68345L14.484 6.63169C14.4928 6.61574 14.4978 6.60086 14.5006 6.58677C14.5072 6.55394 14.5058 6.51125 14.4889 6.46666C14.4549 6.37699 14.3836 6.32242 14.2887 6.31626L10.2174 6.05162C9.92859 6.03286 9.67607 5.84984 9.569 5.58091L8.44497 2.75865L8.20962 2.16587Z" fill="#75669F"/>
</svg>
