<svg width="16" height="16" viewBox="0 0 16 16" fill="none" xmlns="http://www.w3.org/2000/svg">
<g clip-path="url(#clip0_128_12125)">
<path d="M14.4723 3.3566L8.87234 0.252997C8.60532 0.104996 8.30504 0.0273438 7.99974 0.0273438C7.69444 0.0273438 7.39416 0.104996 7.12714 0.252997L1.52714 3.3566C1.24611 3.51236 1.01189 3.74052 0.84881 4.01737C0.68573 4.29422 0.59973 4.60968 0.599739 4.931L0.599739 11.097C0.599732 11.4054 0.678985 11.7087 0.829894 11.9777C0.980804 12.2467 1.19831 12.4724 1.46154 12.6332L6.78274 15.8828C6.87583 15.9397 6.97956 15.9769 7.08756 15.9922C7.19556 16.0075 7.30555 16.0005 7.41077 15.9717C7.51598 15.943 7.6142 15.893 7.69939 15.8249C7.78458 15.7567 7.85494 15.6719 7.90614 15.5756C7.99867 15.3883 8.01681 15.1729 7.95692 14.9727C7.89703 14.7726 7.76355 14.6025 7.58334 14.4968L2.48694 11.3846C2.39922 11.331 2.32674 11.2558 2.27644 11.1661C2.22615 11.0765 2.19974 10.9754 2.19974 10.8726V5.1674C2.19974 5.06029 2.22842 4.95513 2.28279 4.86284C2.33716 4.77056 2.41525 4.69451 2.50894 4.6426L7.70894 1.7606C7.79793 1.71129 7.898 1.68542 7.99974 1.68542C8.10148 1.68542 8.20155 1.71129 8.29054 1.7606L13.4905 4.6426C13.5842 4.69451 13.6623 4.77056 13.7167 4.86284C13.7711 4.95513 13.7997 5.06029 13.7997 5.1674V10.87C13.7997 10.9731 13.7732 11.0745 13.7226 11.1644C13.672 11.2542 13.5991 11.3295 13.5109 11.383L11.6643 12.503L10.8087 11.1134C11.5883 10.41 12.0778 9.44139 12.1816 8.39654C12.2854 7.35169 11.9961 6.30566 11.3701 5.46266C10.7442 4.61967 9.82649 4.04023 8.79625 3.83747C7.76602 3.63471 6.69721 3.82319 5.79847 4.3661C4.89974 4.90902 4.2356 5.7674 3.93573 6.77366C3.63586 7.77993 3.72177 8.86183 4.17671 9.80815C4.63164 10.7545 5.42293 11.4973 6.39609 11.8915C7.36926 12.2858 8.45442 12.3032 9.43974 11.9404L10.7197 14.0192C10.8305 14.1992 11.0079 14.3281 11.2133 14.3777C11.4188 14.4273 11.6355 14.3936 11.8161 14.284L14.5349 12.634C14.7991 12.4734 15.0174 12.2474 15.1689 11.9779C15.3204 11.7084 15.3999 11.4044 15.3997 11.0952V4.931C15.3997 4.60968 15.3137 4.29422 15.1507 4.01737C14.9876 3.74052 14.7534 3.51236 14.4723 3.3566ZM5.39974 8C5.39974 7.48576 5.55223 6.98308 5.83792 6.55551C6.12361 6.12795 6.52967 5.7947 7.00476 5.59791C7.47985 5.40112 8.00262 5.34963 8.50697 5.44995C9.01132 5.55028 9.4746 5.7979 9.83822 6.16152C10.2018 6.52514 10.4495 6.98841 10.5498 7.49276C10.6501 7.99711 10.5986 8.51989 10.4018 8.99497C10.205 9.47006 9.87179 9.87613 9.44422 10.1618C9.01665 10.4475 8.51397 10.6 7.99974 10.6C7.31042 10.5992 6.64956 10.325 6.16214 9.8376C5.67472 9.35017 5.40053 8.68932 5.39974 8Z" fill="#281D44"/>
</g>
<defs>
<clipPath id="clip0_128_12125">
<rect width="16" height="16" fill="white"/>
</clipPath>
</defs>
</svg>
